<?xml version="1.0" standalone="no"?>
<!DOCTYPE svg PUBLIC "-//W3C//DTD SVG 20010904//EN"
 "http://www.w3.org/TR/2001/REC-SVG-20010904/DTD/svg10.dtd">
<svg version="1.0" xmlns="http://www.w3.org/2000/svg"
 width="256.000000pt" height="256.000000pt" viewBox="0 0 256.000000 256.000000"
 preserveAspectRatio="xMidYMid meet">
<metadata>
Created by potrace 1.13, written by Peter Selinger 2001-2015
</metadata>
<g transform="translate(0.000000,256.000000) scale(0.100000,-0.100000)"
fill="#333" stroke="none">
<path d="M1305 2531 c-3 -5 3 -12 12 -14 14 -4 12 -5 -5 -6 -12 0 -40 -10 -60
-20 -23 -11 -48 -17 -65 -14 -15 3 -37 -1 -49 -9 -13 -8 -45 -20 -72 -27 -27
-7 -58 -19 -70 -27 -11 -7 -28 -14 -37 -14 -21 0 -234 -106 -275 -137 -17 -13
-37 -23 -45 -23 -9 0 -30 -16 -49 -35 -19 -19 -42 -35 -53 -35 -10 0 -27 -5
-38 -11 -19 -10 -20 -9 -9 11 l12 22 -42 -23 c-25 -14 -48 -36 -56 -54 -7 -16
-21 -35 -32 -42 -10 -6 -36 -37 -57 -69 -21 -31 -44 -64 -52 -73 -58 -68 -77
-98 -103 -162 -17 -41 -38 -96 -45 -124 -32 -112 -52 -167 -65 -175 -10 -6
-12 -31 -7 -112 6 -93 5 -101 -8 -78 -13 23 -14 13 -15 -105 0 -71 4 -146 9
-165 5 -19 14 -62 22 -95 15 -72 92 -231 160 -331 29 -42 94 -112 157 -170 59
-54 125 -117 147 -140 52 -55 222 -169 275 -185 67 -20 251 3 307 39 24 15 43
32 43 37 0 6 12 28 27 50 40 59 37 129 -10 193 -63 84 -98 111 -173 131 -38
11 -81 17 -95 14 -16 -3 -41 4 -65 16 -21 12 -53 21 -69 21 -17 0 -40 7 -51
15 -10 8 -30 15 -42 15 -15 0 -26 7 -29 20 -3 11 -13 20 -23 20 -20 0 -41 22
-65 68 -16 33 -16 34 5 27 19 -6 21 -5 11 13 -6 12 -16 24 -21 27 -5 3 -15 16
-21 28 -6 12 13 -4 41 -35 28 -32 59 -58 68 -58 9 -1 35 -9 57 -20 64 -30 72
-4 12 38 -18 12 -46 35 -61 51 -24 25 -26 29 -8 25 11 -3 23 0 28 7 5 9 2 11
-8 6 -12 -4 -18 3 -23 30 -4 23 -19 47 -42 67 -48 43 -67 82 -69 146 -1 30 -7
73 -13 95 -6 22 -11 81 -11 131 0 52 -5 95 -11 101 -11 11 -9 23 18 155 3 15
14 35 24 44 10 9 19 28 19 41 0 13 7 26 15 30 25 9 27 -2 11 -42 -9 -21 -16
-50 -16 -64 0 -15 -7 -36 -15 -47 -14 -18 -21 -64 -10 -64 10 0 45 40 45 53 0
38 86 221 123 262 108 118 172 168 282 220 44 20 96 45 115 55 99 51 256 71
391 50 45 -7 94 -19 108 -26 14 -8 32 -14 40 -14 25 0 116 -51 151 -86 20 -19
42 -34 49 -34 15 0 79 -69 118 -126 37 -55 89 -171 113 -254 12 -41 25 -87 30
-102 5 -18 5 -28 -2 -28 -6 0 -8 -7 -5 -14 4 -10 1 -13 -8 -10 -7 3 -18 22
-24 42 -9 31 -9 26 -3 -28 17 -150 2 -382 -28 -455 -41 -98 -92 -189 -147
-264 -36 -48 -39 -57 -20 -64 6 -2 4 -3 -5 -2 -10 2 -18 0 -18 -3 -1 -4 -21
-23 -45 -42 -28 -22 -45 -43 -45 -56 0 -14 -10 -26 -30 -34 -16 -7 -27 -17
-23 -23 4 -6 1 -7 -7 -2 -7 4 -16 2 -21 -6 -4 -8 -13 -14 -18 -14 -6 0 -17 -9
-26 -20 -9 -11 -14 -14 -10 -8 9 18 -3 16 -21 -2 -14 -13 -13 -15 7 -15 18 0
13 -6 -26 -34 l-48 -35 27 -7 c21 -5 25 -10 20 -27 -5 -17 -3 -19 16 -14 17 4
20 3 11 -6 -22 -22 -11 -30 36 -23 47 6 48 6 23 -10 -14 -10 -48 -34 -76 -56
-28 -21 -56 -38 -62 -38 -6 0 -14 -5 -17 -10 -4 -7 8 -10 34 -8 23 2 41 6 41
11 0 4 17 7 38 7 21 0 43 5 49 11 6 6 19 9 29 6 15 -3 12 -7 -13 -17 -18 -6
-33 -16 -33 -21 0 -17 256 106 279 135 15 18 31 13 31 -10 0 -23 -116 -101
-235 -158 -27 -13 -56 -34 -63 -45 -7 -12 -17 -19 -22 -16 -10 6 -90 -26 -90
-37 0 -20 135 3 212 36 21 9 45 16 54 16 9 0 27 9 41 20 14 11 39 20 54 20 18
0 29 5 29 14 0 8 14 17 30 21 17 4 30 13 30 21 0 7 15 20 33 28 17 7 43 25 56
40 14 14 29 26 35 26 15 1 96 75 96 89 0 6 21 35 48 65 70 80 138 183 149 223
3 15 15 41 25 59 22 37 53 134 62 189 3 22 14 72 23 110 21 83 23 326 4 444
-9 60 -9 76 1 83 10 6 8 8 -4 8 -10 0 -18 7 -18 16 0 8 5 12 10 9 6 -3 10 1
10 9 0 9 -7 16 -15 16 -8 0 -15 5 -15 10 0 6 5 10 10 10 6 0 10 7 10 15 0 8
-6 15 -14 15 -9 0 -21 21 -30 53 -16 54 -118 265 -159 326 -12 18 -48 61 -79
94 -32 34 -58 65 -58 68 0 4 -20 16 -44 28 -25 11 -47 25 -51 31 -3 5 -15 10
-26 10 -11 0 -22 7 -25 15 -8 21 -24 9 -18 -13 5 -13 4 -14 -4 -3 -5 7 -15 10
-21 7 -6 -4 -16 -4 -23 0 -7 5 -5 12 8 22 17 13 16 14 -20 9 -28 -5 -45 -1
-65 13 -36 27 -133 37 -163 18 -33 -21 -94 0 -91 31 3 20 -1 21 -120 22 -95 0
-117 3 -99 11 12 6 22 15 22 20 0 4 17 8 38 8 57 0 82 10 82 31 0 11 -8 22
-17 25 -40 13 -83 39 -83 51 0 7 -12 15 -27 18 -16 3 -42 10 -59 15 -38 12
-51 13 -59 1z m-265 -336 c0 -8 -7 -15 -15 -15 -8 0 -33 -13 -56 -29 -22 -17
-46 -32 -52 -34 -7 -2 -9 -8 -5 -12 4 -4 22 -1 40 7 46 21 88 30 88 19 0 -5
-6 -13 -12 -18 -9 -5 -3 -9 17 -13 29 -5 28 -7 -40 -43 -38 -20 -75 -37 -82
-37 -41 0 -187 -121 -271 -225 l-32 -40 17 37 c10 21 23 38 30 38 6 0 14 9 18
20 3 11 16 27 28 37 45 37 92 113 70 113 -12 0 -9 68 3 80 21 21 219 130 237
130 9 0 17 -7 17 -15z"/>
</g>
</svg>
