<?xml version="1.0" standalone="no"?>
<!DOCTYPE svg PUBLIC "-//W3C//DTD SVG 20010904//EN"
 "http://www.w3.org/TR/2001/REC-SVG-20010904/DTD/svg10.dtd">
<svg version="1.0" xmlns="http://www.w3.org/2000/svg"
 width="256.000000pt" height="256.000000pt" viewBox="0 0 256.000000 256.000000"
 preserveAspectRatio="xMidYMid meet">
<metadata>
Created by potrace 1.13, written by Peter Selinger 2001-2015
</metadata>
<g transform="translate(0.000000,256.000000) scale(0.100000,-0.100000)"
fill="#333" stroke="none">
<path d="M724 2478 c-3 -5 35 -49 85 -98 50 -49 91 -91 91 -95 0 -10 -34 12
-55 35 -11 12 -37 35 -57 52 -35 28 -39 28 -80 17 -24 -7 -54 -11 -67 -11 -26
2 -61 -23 -61 -44 0 -7 -6 -11 -14 -8 -8 3 -25 0 -38 -7 -13 -7 -32 -12 -43
-10 -16 2 -17 0 -7 -12 11 -12 8 -17 -18 -25 -27 -10 -35 -21 -31 -44 2 -12
-17 -10 -24 2 -3 6 -13 10 -22 10 -13 0 -13 -3 -3 -15 11 -13 7 -15 -28 -15
-52 0 -94 -21 -81 -41 15 -24 10 -32 -16 -27 -20 4 -25 1 -25 -15 0 -26 47
-95 69 -102 9 -3 18 -17 19 -32 1 -16 7 -29 12 -31 6 -2 10 -19 10 -38 0 -24
5 -37 18 -41 25 -9 72 -43 72 -52 0 -4 -18 -15 -40 -24 -38 -15 -40 -17 -40
-59 0 -37 5 -49 32 -75 18 -17 49 -38 68 -46 20 -8 69 -46 109 -86 41 -39 76
-71 77 -71 14 0 -3 26 -47 72 -28 29 -58 63 -66 75 -15 23 -5 37 21 27 11 -4
16 -1 16 10 0 22 9 20 37 -6 13 -12 26 -19 29 -15 4 3 -15 27 -42 53 -44 41
-45 43 -9 16 82 -62 375 -384 375 -412 0 -13 -88 -95 -101 -95 -5 0 -37 -27
-71 -60 -35 -33 -79 -71 -98 -84 -19 -13 -68 -53 -109 -90 -40 -36 -92 -81
-115 -100 -22 -18 -40 -38 -38 -43 4 -16 -19 -38 -39 -38 -24 0 -139 -117
-133 -134 3 -7 -15 -29 -40 -50 -42 -34 -45 -40 -44 -84 0 -26 4 -52 9 -58 5
-7 -1 -19 -16 -34 -19 -18 -22 -26 -14 -37 9 -10 6 -19 -14 -37 -14 -13 -32
-37 -40 -53 -9 -16 -32 -46 -51 -65 -20 -20 -36 -40 -36 -45 0 -18 78 -73 94
-67 12 5 16 0 16 -20 0 -22 4 -26 30 -26 26 0 127 54 170 92 8 7 28 19 44 26
16 7 41 22 55 33 14 11 53 37 86 58 188 118 336 221 390 270 22 20 65 54 97
74 31 21 63 49 72 62 9 14 32 31 51 39 19 8 74 45 121 82 l87 68 31 -39 c17
-22 51 -63 76 -90 87 -99 100 -115 100 -124 0 -5 8 -11 18 -13 20 -5 172 -170
172 -186 0 -20 79 -74 99 -67 24 7 97 -47 130 -98 13 -20 32 -37 42 -37 10 0
22 -7 27 -15 12 -23 102 -95 118 -95 7 0 30 16 49 36 27 27 40 33 48 25 33
-33 73 8 62 65 -4 22 -2 34 5 34 15 0 4 35 -25 80 -13 19 -26 45 -29 57 -11
35 24 18 64 -33 61 -77 81 -34 26 56 -20 32 -36 62 -36 67 0 5 -25 44 -56 88
-49 71 -97 151 -99 165 -1 12 -55 92 -121 180 -39 52 -73 102 -76 111 -3 8
-40 61 -83 117 -84 111 -84 112 -24 159 42 33 98 86 312 293 208 202 217 211
217 232 0 10 6 18 13 18 8 0 37 22 65 49 28 27 67 58 86 71 36 22 50 60 21 60
-11 0 -12 5 -5 24 6 18 5 28 -6 37 -8 6 -20 23 -27 38 -9 19 -25 29 -61 38
-46 11 -50 11 -81 -12 -38 -30 -45 -31 -39 -7 3 9 18 25 35 34 32 19 37 46 16
91 -9 20 -19 27 -40 27 -16 0 -26 4 -23 9 7 11 -11 26 -41 35 -37 11 -162 -76
-330 -229 -18 -16 -53 -46 -79 -65 -25 -19 -69 -56 -97 -81 -29 -25 -63 -55
-77 -65 -13 -10 -46 -40 -72 -66 -26 -27 -53 -48 -61 -48 -15 0 -82 -67 -90
-92 -4 -10 -10 -18 -15 -18 -5 0 -38 35 -73 78 -58 71 -262 306 -351 406 -20
22 -37 46 -38 51 0 10 -64 75 -212 216 -27 26 -51 42 -54 37z"/>
</g>
</svg>
